<svg width="8" height="43" viewBox="0 0 8 43" fill="none" xmlns="http://www.w3.org/2000/svg">
<path d="M1.6336 41.412C0.967205 40.8256 0.634007 40.0126 0.634007 38.973C0.634007 37.9334 0.967205 37.1204 1.6336 36.534C2.3 35.9209 3.13966 35.6144 4.15258 35.6144C5.19215 35.6144 6.04514 35.9209 6.71154 36.534C7.37793 37.1204 7.71113 37.9334 7.71113 38.973C7.71113 40.0126 7.37793 40.8256 6.71154 41.412C6.04514 42.0251 5.19215 42.3317 4.15258 42.3317C3.13966 42.3317 2.3 42.0251 1.6336 41.412ZM1.6336 6.38626C0.967205 5.79984 0.634007 4.98683 0.634007 3.94725C0.634007 2.88102 0.967205 2.05469 1.6336 1.46826C2.3 0.881833 3.13966 0.588619 4.15258 0.588619C5.19215 0.588619 6.04514 0.881833 6.71154 1.46826C7.37793 2.05469 7.71113 2.88102 7.71113 3.94725C7.71113 4.98683 7.37793 5.79984 6.71154 6.38626C6.04514 6.99935 5.19215 7.30589 4.15258 7.30589C3.13966 7.30589 2.3 6.99935 1.6336 6.38626Z" fill="black"/>
</svg>
