<svg width="48" height="48" viewBox="0 0 48 48" fill="none" xmlns="http://www.w3.org/2000/svg">
<path d="M13.2 17C12.9627 17 12.7307 17.0704 12.5333 17.2022C12.336 17.3341 12.1822 17.5215 12.0913 17.7408C12.0005 17.9601 11.9768 18.2013 12.0231 18.4341C12.0694 18.6669 12.1836 18.8807 12.3515 19.0485C12.5193 19.2164 12.7331 19.3306 12.9659 19.3769C13.1987 19.4232 13.4399 19.3995 13.6592 19.3087C13.8785 19.2178 14.0659 19.064 14.1978 18.8667C14.3296 18.6693 14.4 18.4373 14.4 18.2C14.4 17.8817 14.2736 17.5765 14.0485 17.3515C13.8235 17.1264 13.5183 17 13.2 17ZM18 19.4H34.8C35.1183 19.4 35.4235 19.2736 35.6485 19.0485C35.8736 18.8235 36 18.5183 36 18.2C36 17.8817 35.8736 17.5765 35.6485 17.3515C35.4235 17.1264 35.1183 17 34.8 17H18C17.6817 17 17.3765 17.1264 17.1515 17.3515C16.9264 17.5765 16.8 17.8817 16.8 18.2C16.8 18.5183 16.9264 18.8235 17.1515 19.0485C17.3765 19.2736 17.6817 19.4 18 19.4ZM18 23C17.7627 23 17.5307 23.0704 17.3333 23.2022C17.136 23.3341 16.9822 23.5215 16.8913 23.7408C16.8005 23.9601 16.7768 24.2013 16.8231 24.4341C16.8694 24.6669 16.9836 24.8807 17.1515 25.0485C17.3193 25.2164 17.5331 25.3306 17.7659 25.3769C17.9987 25.4232 18.2399 25.3995 18.4592 25.3087C18.6785 25.2178 18.8659 25.064 18.9978 24.8667C19.1296 24.6693 19.2 24.4373 19.2 24.2C19.2 23.8817 19.0736 23.5765 18.8485 23.3515C18.6235 23.1264 18.3183 23 18 23ZM22.8 29C22.5627 29 22.3307 29.0704 22.1333 29.2022C21.936 29.3341 21.7822 29.5215 21.6913 29.7408C21.6005 29.9601 21.5768 30.2013 21.6231 30.4341C21.6694 30.6669 21.7837 30.8807 21.9515 31.0485C22.1193 31.2164 22.3331 31.3306 22.5659 31.3769C22.7987 31.4232 23.04 31.3995 23.2592 31.3087C23.4785 31.2178 23.6659 31.064 23.7978 30.8667C23.9296 30.6693 24 30.4373 24 30.2C24 29.8817 23.8736 29.5765 23.6485 29.3515C23.4235 29.1264 23.1183 29 22.8 29ZM34.8 23H22.8C22.4817 23 22.1765 23.1264 21.9515 23.3515C21.7264 23.5765 21.6 23.8817 21.6 24.2C21.6 24.5183 21.7264 24.8235 21.9515 25.0485C22.1765 25.2736 22.4817 25.4 22.8 25.4H34.8C35.1183 25.4 35.4235 25.2736 35.6485 25.0485C35.8736 24.8235 36 24.5183 36 24.2C36 23.8817 35.8736 23.5765 35.6485 23.3515C35.4235 23.1264 35.1183 23 34.8 23ZM34.8 29H27.6C27.2817 29 26.9765 29.1264 26.7515 29.3515C26.5264 29.5765 26.4 29.8817 26.4 30.2C26.4 30.5183 26.5264 30.8235 26.7515 31.0485C26.9765 31.2736 27.2817 31.4 27.6 31.4H34.8C35.1183 31.4 35.4235 31.2736 35.6485 31.0485C35.8736 30.8235 36 30.5183 36 30.2C36 29.8817 35.8736 29.5765 35.6485 29.3515C35.4235 29.1264 35.1183 29 34.8 29Z" fill="black"/>
<rect x="17" y="17" width="19" height="2" rx="1" fill="black"/>
<rect x="21" y="23" width="15" height="2" rx="1" fill="black"/>
<rect x="26" y="29" width="10" height="2" rx="1" fill="black"/>
<rect x="12" y="17" width="2" height="2" rx="1" fill="black"/>
<rect x="16" y="23" width="2" height="2" rx="1" fill="black"/>
<rect x="21" y="29" width="2" height="2" rx="1" fill="black"/>
</svg>
