<svg width="24" height="24" viewBox="0 0 24 24" fill="none" xmlns="http://www.w3.org/2000/svg">
<path d="M7.09561 14.5581C6.90808 14.7456 6.65377 14.8509 6.38861 14.8509C6.12344 14.8509 5.86913 14.7456 5.68161 14.5581L0.732605 9.60808C0.500389 9.37593 0.316181 9.1003 0.190504 8.79694C0.064827 8.49359 0.000139236 8.16844 0.000139236 7.84008C0.000139236 7.51172 0.064827 7.18658 0.190504 6.88322C0.316181 6.57986 0.500389 6.30424 0.732605 6.07208L5.68261 1.12308C5.87277 0.950655 6.12196 0.857959 6.37858 0.864186C6.6352 0.870413 6.8796 0.975087 7.06118 1.15653C7.24275 1.33798 7.3476 1.58231 7.35401 1.83893C7.36042 2.09554 7.2679 2.3448 7.09561 2.53508L2.7956 6.83508H18.9956C20.3217 6.83508 21.5935 7.36187 22.5311 8.29955C23.4688 9.23723 23.9956 10.509 23.9956 11.8351V18.8351C23.994 20.1607 23.4667 21.4315 22.5294 22.3689C21.592 23.3062 20.3212 23.8335 18.9956 23.8351H4.99561C4.73039 23.8351 4.47603 23.7297 4.2885 23.5422C4.10096 23.3547 3.99561 23.1003 3.99561 22.8351C3.99561 22.5699 4.10096 22.3155 4.2885 22.128C4.47603 21.9404 4.73039 21.8351 4.99561 21.8351H18.9956C19.7913 21.8351 20.5543 21.519 21.1169 20.9564C21.6795 20.3938 21.9956 19.6307 21.9956 18.8351V11.8351C21.9956 11.0394 21.6795 10.2764 21.1169 9.71376C20.5543 9.15115 19.7913 8.83508 18.9956 8.83508H2.78361L7.09561 13.1441C7.28308 13.3316 7.38839 13.5859 7.38839 13.8511C7.38839 14.1162 7.28308 14.3706 7.09561 14.5581Z" fill="#374957"/>
</svg>
