<svg width="25" height="25" viewBox="0 0 25 25" fill="none" xmlns="http://www.w3.org/2000/svg">
<path d="M19.3595 15.3612C18.6035 15.3618 17.8589 15.5464 17.19 15.899C16.5212 16.2517 15.9482 16.7617 15.5205 17.3852L9.01154 14.4462C9.47386 13.3299 9.47565 12.0759 9.01654 10.9582L15.5165 8.00422C16.1504 8.92097 17.0919 9.58018 18.1701 9.86226C19.2484 10.1443 20.3921 10.0306 21.3937 9.54172C22.3953 9.05281 23.1885 8.22112 23.6294 7.19748C24.0703 6.17385 24.1297 5.02609 23.7969 3.96239C23.4641 2.89869 22.761 1.98951 21.8153 1.39977C20.8695 0.810031 19.7437 0.57879 18.6421 0.747993C17.5405 0.917197 16.5359 1.47564 15.8108 2.32202C15.0856 3.1684 14.6878 4.24666 14.6895 5.36122C14.6938 5.62502 14.7205 5.88797 14.7695 6.14722L7.85954 9.28722C7.19588 8.66544 6.36505 8.25105 5.46912 8.09498C4.57318 7.9389 3.65117 8.04793 2.81635 8.40868C1.98153 8.76942 1.27027 9.36615 0.76994 10.1256C0.269611 10.885 0.00200942 11.774 1.12722e-05 12.6835C-0.00198688 13.5929 0.261705 14.4831 0.758692 15.2447C1.25568 16.0063 1.96432 16.6062 2.79754 16.9706C3.63077 17.335 4.55229 17.4481 5.4489 17.2959C6.34551 17.1438 7.17816 16.7331 7.84454 16.1142L14.7725 19.2422C14.7244 19.5012 14.698 19.7638 14.6935 20.0272C14.6933 20.9503 14.9669 21.8528 15.4797 22.6204C15.9924 23.3881 16.7213 23.9864 17.5741 24.3398C18.4269 24.6931 19.3654 24.7856 20.2708 24.6056C21.1762 24.4255 22.0079 23.981 22.6606 23.3283C23.3134 22.6755 23.7579 21.8439 23.9379 20.9385C24.118 20.0331 24.0255 19.0946 23.6721 18.2418C23.3187 17.389 22.7204 16.6601 21.9528 16.1473C21.1851 15.6346 20.2827 15.361 19.3595 15.3612ZM19.3595 2.69422C19.8871 2.69402 20.4028 2.85027 20.8415 3.1432C21.2802 3.43614 21.6222 3.85259 21.8242 4.33991C22.0263 4.82722 22.0792 5.3635 21.9764 5.88091C21.8736 6.39832 21.6197 6.87363 21.2468 7.24672C20.8738 7.6198 20.3986 7.87391 19.8812 7.9769C19.3638 8.07989 18.8275 8.02713 18.3402 7.8253C17.8528 7.62347 17.4362 7.28164 17.1431 6.84303C16.85 6.40442 16.6935 5.88874 16.6935 5.36122C16.6941 4.65422 16.9751 3.97632 17.4749 3.4763C17.9748 2.97629 18.6525 2.69501 19.3595 2.69422ZM4.69354 15.3612C4.16602 15.3614 3.65028 15.2052 3.21157 14.9122C2.77285 14.6193 2.43086 14.2028 2.22884 13.7155C2.02683 13.2282 1.97387 12.6919 2.07667 12.1745C2.17946 11.6571 2.43339 11.1818 2.80634 10.8087C3.17928 10.4356 3.6545 10.1815 4.17187 10.0785C4.68924 9.97555 5.22554 10.0283 5.71293 10.2301C6.20032 10.432 6.61691 10.7738 6.91 11.2124C7.2031 11.651 7.35954 12.1667 7.35954 12.6942C7.35875 13.4011 7.07765 14.0789 6.57787 14.5788C6.0781 15.0788 5.40046 15.3602 4.69354 15.3612ZM19.3595 22.6942C18.8321 22.6942 18.3164 22.5378 17.8778 22.2447C17.4393 21.9517 17.0974 21.5352 16.8956 21.0478C16.6937 20.5605 16.6409 20.0243 16.7438 19.5069C16.8467 18.9896 17.1007 18.5144 17.4737 18.1414C17.8467 17.7684 18.3219 17.5144 18.8392 17.4115C19.3566 17.3086 19.8928 17.3614 20.3802 17.5632C20.8675 17.7651 21.284 18.1069 21.5771 18.5455C21.8701 18.9841 22.0265 19.4997 22.0265 20.0272C22.026 20.7344 21.7449 21.4124 21.2448 21.9125C20.7448 22.4125 20.0667 22.6937 19.3595 22.6942Z" fill="black"/>
</svg>
