<svg width="9" height="10" viewBox="0 0 9 10" fill="none" xmlns="http://www.w3.org/2000/svg">
<path d="M4.18679 9.99875L3.89636 9.7498C3.49598 9.41455 0 6.3953 0 4.18679C0 1.87449 1.87449 0 4.18679 0C6.49908 0 8.37357 1.87449 8.37357 4.18679C8.37357 6.39532 4.87759 9.41457 4.47887 9.75146L4.18679 9.99875ZM4.18679 0.905305C2.37534 0.907356 0.907376 2.37532 0.905325 4.18677C0.905325 5.5742 3.05618 7.79061 4.18679 8.80504C5.31741 7.7902 7.46825 5.57253 7.46825 4.18677C7.4662 2.37532 5.99826 0.907376 4.18679 0.905305Z" fill="#999999"/>
<path d="M4.18683 5.84625C3.27026 5.84625 2.52723 5.10321 2.52723 4.18664C2.52723 3.27007 3.27026 2.52703 4.18683 2.52703C5.10341 2.52703 5.84644 3.27007 5.84644 4.18664C5.84644 5.10321 5.10343 5.84625 4.18683 5.84625ZM4.18683 3.35682C3.72855 3.35682 3.35703 3.72833 3.35703 4.18662C3.35703 4.64491 3.72855 5.01642 4.18683 5.01642C4.64512 5.01642 5.01664 4.64491 5.01664 4.18662C5.01664 3.72833 4.64514 3.35682 4.18683 3.35682Z" fill="#999999"/>
</svg>
