<svg width="108" height="109" viewBox="0 0 108 109" fill="none" xmlns="http://www.w3.org/2000/svg">
<path d="M82.2149 68.9388C82.9908 64.419 83.4333 59.1928 83.4333 53.6205C83.4333 48.0482 82.9908 42.822 82.2149 38.3023V68.9388ZM79.6579 50.9229C79.4698 43.6738 78.5311 37.1375 77.0993 32.1784V41.6368C76.5288 37.1249 75.647 33.1551 74.5407 30.0244V37.2292C73.877 33.6987 73.0062 30.6439 71.9837 28.2529V34.0385C71.271 31.1402 70.4034 28.678 69.4252 26.7911V31.5321C68.684 29.1063 67.8196 27.0882 66.8666 25.59C62.7233 23.6278 58.1951 22.6129 53.6107 22.619C36.4909 22.6221 22.6123 36.5007 22.6123 53.6284C22.6123 70.7561 36.4909 84.6189 53.6107 84.6189C58.1951 84.6249 62.7233 83.61 66.8666 81.6479C67.8148 80.1497 68.684 78.1316 69.4252 75.7058V80.4468C70.405 78.5599 71.271 76.0977 71.9837 73.1994V78.985C73.0062 76.5939 73.8802 73.5391 74.5407 70.0087V77.2134C75.647 74.0828 76.5288 70.113 77.0993 65.6011V75.0594C78.5311 70.1003 79.4698 63.564 79.6579 56.315V72.3871C80.8526 67.1719 81.5638 60.6752 81.5638 53.6205C81.5638 46.5659 80.8526 40.0628 79.6579 34.854V50.9229ZM84.7734 43.2993V63.9386C85.4815 57.0781 85.4815 50.1629 84.7734 43.3025V43.2993Z" fill="#FF641E"/>
<path d="M45.8208 44.2852C43.7381 46.3679 42.45 49.2451 42.45 52.4232C42.45 55.6013 43.7381 58.4785 45.8208 60.5612" stroke="white" stroke-width="1.36301"/>
<path d="M42.3332 40.7974C39.3578 43.7727 37.5176 47.883 37.5176 52.4231C37.5176 56.9633 39.3578 61.0736 42.3332 64.0489" stroke="white" stroke-width="1.36301"/>
<path d="M62.0967 60.5612C64.1794 58.4785 65.4676 55.6013 65.4676 52.4232C65.4676 49.2451 64.1794 46.3679 62.0967 44.2852" stroke="white" stroke-width="1.36301"/>
<path d="M65.5845 64.0489C68.5598 61.0736 70.4 56.9633 70.4 52.4231C70.4 47.883 68.5598 43.7727 65.5845 40.7974" stroke="white" stroke-width="1.36301"/>
<path d="M56.574 49.1348C58.3074 49.1348 59.7128 50.4598 59.7128 52.0943C59.7128 54.2219 57.6202 56.0402 56.574 57.0267C55.8764 57.6843 55.0046 58.342 53.9583 58.9996C52.9121 58.342 52.0402 57.6843 51.3427 57.0267C50.2964 56.0402 48.2039 54.2219 48.2039 52.0943C48.2039 50.4598 49.6092 49.1348 51.3427 49.1348C52.4344 49.1348 53.396 49.6604 53.9583 50.4578C54.5206 49.6604 55.4822 49.1348 56.574 49.1348Z" stroke="white" stroke-width="1.36301" stroke-linejoin="round"/>
<path d="M33.0739 89.3829L40.0158 92.6444L35.8475 101.517L28.9055 98.2553L29.5363 96.9127L34.9067 99.4358L35.9968 97.1156L31.4121 94.9616L32.0313 93.6438L36.6159 95.7977L37.8135 93.2487L32.4431 90.7255L33.0739 89.3829Z" fill="black"/>
<path d="M16.1688 87.8821L14.7107 86.3918L21.2299 86.1248L21.5218 79.3362L22.9895 80.8363L22.7186 87.4705L26.1733 84.0907L27.3875 85.3318L20.3804 92.1871L19.1662 90.9459L22.5524 87.633L16.1688 87.8821Z" fill="black"/>
<path d="M16.4616 73.6189C15.9531 74.807 15.0023 75.6902 13.6091 76.2686C12.2075 76.8505 10.9086 76.9012 9.71246 76.4207C8.51976 75.9487 7.63074 75.0077 7.04538 73.5977C6.79377 72.9916 6.64714 72.3888 6.6055 71.7893C6.5649 71.2042 6.61273 70.6835 6.74899 70.2272C6.88628 69.7853 7.07683 69.3707 7.32062 68.9833C7.76358 68.2912 8.28811 67.8193 8.89421 67.5677L9.59139 69.2471C9.45988 69.2869 9.26527 69.454 9.00758 69.7485C8.74814 70.0388 8.54262 70.3757 8.39103 70.7594C8.2739 71.0597 8.22174 71.4095 8.23454 71.8088C8.24138 72.2056 8.32693 72.6019 8.49118 72.9975C8.86336 73.894 9.4596 74.4804 10.2799 74.7567C11.1086 75.0294 11.986 74.9736 12.912 74.5892C13.8422 74.203 14.499 73.622 14.8825 72.846C15.2719 72.0724 15.2796 71.2353 14.9057 70.3346C14.7415 69.9389 14.5233 69.5977 14.2513 69.311C13.9733 69.0217 13.6867 68.8126 13.3913 68.6836C13.1054 68.5654 12.8272 68.4835 12.5566 68.438C12.0614 68.3623 11.7022 68.3708 11.4791 68.4634L10.7819 66.784C11.388 66.5324 12.0904 66.4949 12.8891 66.6716C13.3356 66.7724 13.7638 66.9302 14.1737 67.1449C14.5972 67.3688 14.9989 67.7004 15.3787 68.1398C15.7721 68.5883 16.0964 69.1199 16.3515 69.7344C16.9351 71.1402 16.9718 72.435 16.4616 73.6189Z" fill="black"/>
<path d="M4.82171 55.9854L4.86465 59.4099L3.31985 59.4293L3.21212 50.8372L4.75692 50.8178L4.79994 54.2492L13.0571 54.1457L13.0789 55.8819L4.82171 55.9854Z" fill="black"/>
<path d="M10.5083 27.8339L11.7271 25.9357L22.1218 27.8901L21.1393 29.4202L19.0752 29.029L16.3752 33.2339L17.5899 34.9481L16.6074 36.4782L10.5083 27.8339ZM15.4364 31.9L17.4715 28.7305L12.5512 27.7646L12.5143 27.8222L15.4364 31.9Z" fill="black"/>
<path d="M33.8484 18.1758L32.4224 19.1664L29.9537 15.6126L25.6307 18.6157L28.0995 22.1695L26.6735 23.1601L21.0808 15.1093L22.5068 14.1187L24.7532 17.3525L29.0762 14.3494L26.8297 11.1156L28.2558 10.125L33.8484 18.1758Z" fill="black"/>
<path d="M47.4746 4.84738C48.54 5.57318 49.2248 6.67714 49.5289 8.15928C49.8321 9.63696 49.637 10.9192 48.9435 12.0059C48.2455 13.0935 47.151 13.7903 45.6599 14.0962C44.1688 14.4022 42.8906 14.1923 41.8252 13.4665C40.7553 12.7416 40.0687 11.6403 39.7655 10.1626C39.4605 8.67603 39.6574 7.39114 40.3563 6.30799C41.0463 5.22666 42.139 4.53256 43.6346 4.2257C45.1256 3.91974 46.4056 4.12697 47.4746 4.84738ZM47.4175 11.1327C47.841 10.3851 47.951 9.51585 47.7477 8.52478C47.5443 7.53371 47.1004 6.77577 46.4158 6.25096C45.7268 5.72708 44.9046 5.56315 43.9492 5.75918C42.9939 5.95521 42.3027 6.42967 41.8756 7.18256C41.453 7.93454 41.3434 8.80607 41.5468 9.79714C41.7501 10.7882 42.1936 11.5439 42.8773 12.0643C43.5672 12.5926 44.3899 12.7588 45.3452 12.5627C46.3006 12.3667 46.9913 11.89 47.4175 11.1327Z" fill="black"/>
<path d="M66.0252 14.7298L64.3243 14.3808L65.1941 10.142L60.0378 9.08395L59.1681 13.3228L57.4672 12.9738L59.4376 3.37111L61.1384 3.72012L60.347 7.57725L65.5032 8.63526L66.2947 4.77813L67.9956 5.12713L66.0252 14.7298Z" fill="black"/>
<path d="M74.9374 17.2559C74.7242 15.9813 75.0478 14.7246 75.9085 13.4857C76.7743 12.2394 77.8403 11.4956 79.1066 11.2543C80.3654 11.0079 81.6217 11.3202 82.8756 12.1912C83.4145 12.5656 83.8634 12.9939 84.222 13.4761C84.572 13.9467 84.8128 14.4109 84.9444 14.8685C85.0673 15.3146 85.1307 15.7665 85.1346 16.2242C85.1353 17.046 84.9485 17.7263 84.5741 18.2653L83.0807 17.2279C83.1699 17.1234 83.2435 16.8776 83.3015 16.4906C83.3632 16.1062 83.3543 15.7116 83.2748 15.3068C83.2114 14.9908 83.0665 14.6682 82.8402 14.339C82.6202 14.0086 82.3343 13.7212 81.9825 13.4768C81.1852 12.923 80.3668 12.7512 79.5271 12.9614C78.6823 13.1791 77.9739 13.6997 77.4018 14.5231C76.8272 15.3503 76.588 16.194 76.684 17.0542C76.7737 17.9156 77.219 18.6245 78.02 19.1809C78.3718 19.4253 78.7396 19.5948 79.1234 19.6894C79.5135 19.7828 79.8677 19.8041 80.186 19.7533C80.4904 19.6985 80.7689 19.6172 81.0212 19.5095C81.479 19.3059 81.7768 19.1049 81.9146 18.9065L83.4079 19.9439C83.0335 20.4829 82.4625 20.8936 81.6948 21.176C81.2645 21.3321 80.8189 21.4304 80.3579 21.4709C79.8805 21.511 79.3634 21.4487 78.8065 21.2838C78.2332 21.1186 77.6733 20.8462 77.1269 20.4665C75.8768 19.5981 75.147 18.5279 74.9374 17.2559Z" fill="black"/>
<path d="M95.8384 25.3884L97.0573 27.2866L90.9545 35.9251L89.972 34.395L91.1866 32.6809L88.4867 28.476L86.4226 28.8671L85.4401 27.337L95.8384 25.3884ZM90.0904 28.1774L92.1255 31.3469L95.0513 27.2749L95.0143 27.2173L90.0904 28.1774Z" fill="black"/>
<path d="M103.13 53.259L103.173 49.8345L104.717 49.8539L104.61 58.446L103.065 58.4266L103.108 54.9952L94.8507 54.8917L94.8724 53.1555L103.13 53.259Z" fill="black"/>
<path d="M90.7011 72.3825L93.4724 65.2307L102.613 68.7726L99.8416 75.9244L98.4584 75.3884L100.602 69.8557L98.212 68.9294L96.3818 73.6527L95.0241 73.1266L96.8544 68.4033L94.2282 67.3857L92.0843 72.9185L90.7011 72.3825Z" fill="black"/>
<path d="M90.3785 89.3508L88.993 90.9089L88.2738 84.424L81.4813 84.6044L82.8758 83.0361L89.5128 82.8454L85.9011 79.6339L87.0549 78.3364L94.3804 84.8503L93.2266 86.1478L89.6865 82.9999L90.3785 89.3508Z" fill="black"/>
<path d="M76.1292 90.0495C77.3497 90.4741 78.2969 91.3613 78.9706 92.7109C79.6485 94.0687 79.7893 95.361 79.3931 96.5876C79.0051 97.8102 78.1282 98.7625 76.7622 99.4444C76.1751 99.7375 75.5839 99.9257 74.9887 100.009C74.4078 100.09 73.8851 100.078 73.4205 99.9743C72.9701 99.868 72.5432 99.7067 72.1398 99.4904C71.4186 99.0966 70.9114 98.6061 70.6183 98.019L72.2452 97.2068C72.294 97.3352 72.4743 97.5178 72.786 97.7544C73.0936 97.993 73.444 98.1746 73.8373 98.2992C74.145 98.3952 74.4975 98.4229 74.895 98.3824C75.2904 98.348 75.6797 98.2351 76.063 98.0438C76.9315 97.6102 77.4751 96.9747 77.6937 96.1372C77.9082 95.2915 77.7916 94.4202 77.3437 93.5231C76.8939 92.622 76.2686 92.0071 75.4678 91.6785C74.6691 91.3438 73.8335 91.3942 72.9609 91.8298C72.5776 92.0211 72.2524 92.2624 71.9852 92.5537C71.716 92.8511 71.5273 93.1516 71.4191 93.4552C71.3211 93.7486 71.2587 94.0319 71.2321 94.305C71.191 94.8043 71.2244 95.162 71.3323 95.3781L69.7054 96.1903C69.4123 95.6031 69.3261 94.905 69.4468 94.096C69.5164 93.6436 69.6441 93.2054 69.8298 92.7816C70.0237 92.3436 70.3266 91.9198 70.7386 91.5104C71.1587 91.0868 71.6664 90.7264 72.2617 90.4292C73.6235 89.7493 74.9127 89.6227 76.1292 90.0495Z" fill="black"/>
<path d="M59.3471 102.887L62.7604 102.606L62.887 104.146L54.3232 104.85L54.1965 103.31L57.6166 103.029L56.9397 94.7989L58.6702 94.6566L59.3471 102.887Z" fill="black"/>
</svg>
